<svg id="Layer_3" data-name="Layer 3" xmlns="http://www.w3.org/2000/svg" viewBox="0 0 1387.72 1098.97"><defs><style>.cls-1{fill:#ff9c15;}.cls-2{fill:#40149c;}.cls-3{fill:#ac62ff;}.cls-4{fill:#a40085;}.cls-5{fill:#009985;}.cls-6{fill:#fad003;}.cls-7{fill:#005d9b;}.cls-8{fill:#00e2dd;}.cls-9{fill:#00ae4a;}.cls-10{fill:#eb1924;}</style></defs><title>Web Background</title><rect class="cls-1" x="798.17" y="656.61" width="369.61" height="165.51" transform="translate(-237.08 1161.75) rotate(-48.99)"/><rect class="cls-2" x="1043.74" y="384.33" width="352.07" height="165.51" transform="translate(49.78 1246.82) rotate(-48.99)"/><rect class="cls-3" x="1054.25" y="626.14" width="348.54" height="164.19" transform="translate(-129.18 1336.33) rotate(-48.99)"/><rect class="cls-4" x="1001.52" y="239.07" width="369.61" height="111.23" transform="translate(168.36 1162.32) rotate(-48.99)"/><rect class="cls-5" x="716.94" y="537.12" width="420.37" height="111.23" transform="translate(-145.64 1069.2) rotate(-48.99)"/><rect class="cls-6" x="489.79" y="375.03" width="746.87" height="163.25" transform="matrix(0.66, -0.75, 0.75, 0.66, -64.93, 974.2)"/><rect class="cls-7" x="255.63" y="443.84" width="659.32" height="164.1" transform="translate(-212.72 788.29) rotate(-48.99)"/><rect class="cls-8" x="27.36" y="337.1" width="866.98" height="163.92" transform="matrix(0.66, -0.75, 0.75, 0.66, -174.88, 657.66)"/><rect class="cls-4" x="706.72" y="-70.63" width="215.89" height="164.63" transform="translate(254.14 784.59) rotate(-48.99)"/><rect class="cls-9" x="91.18" y="136.08" width="693.34" height="146.22" transform="translate(-24.43 568.16) rotate(-48.99)"/><rect class="cls-10" x="157.25" y="135.62" width="254.07" height="111.54" transform="translate(-63.79 446.16) rotate(-48.99)"/><rect class="cls-6" x="-5.64" y="35.12" width="418.05" height="130.19" transform="translate(-22.8 353.78) rotate(-48.99)"/><rect class="cls-10" x="1062.18" y="-7.91" width="268.17" height="163.25" transform="translate(338.52 1093.85) rotate(-48.99)"/><rect class="cls-1" x="712.97" y="0.51" width="515.74" height="164.1" transform="translate(254.35 926.81) rotate(-48.99)"/><rect class="cls-2" x="323.46" y="-57.22" width="257.05" height="111.54" transform="translate(139.37 506.41) rotate(-48.99)"/></svg>