<svg id="Layer_3" data-name="Layer 3" xmlns="http://www.w3.org/2000/svg" viewBox="0 0 1248.53 934.56"><defs><style>.cls-1{fill:#ff9c15;}.cls-2{fill:#40149c;}.cls-3{fill:#ac62ff;}.cls-4{fill:#a40085;}.cls-5{fill:#009985;}.cls-6{fill:#fad003;}.cls-7{fill:#005d9b;}.cls-8{fill:#00e2dd;}.cls-9{fill:#00ae4a;}.cls-10{fill:#eb1924;}</style></defs><title>Web Background</title><rect class="cls-1" x="798.17" y="656.61" width="369.61" height="165.51" transform="translate(-237.08 997.34) rotate(-48.99)"/><polygon class="cls-2" points="1024.7 547.05 1149.59 655.67 1247.47 543.12 1247.47 290.9 1024.7 547.05"/><polygon class="cls-3" points="1035.11 787.31 1159 895.05 1247.47 793.32 1247.47 543.12 1035.11 787.31"/><polygon class="cls-4" points="1005.98 399.08 1089.91 472.07 1247.47 290.9 1247.47 121.41 1005.98 399.08"/><polyline class="cls-4" points="1248.53 120.19 1247.47 121.41 1247.47 290.9"/><rect class="cls-5" x="716.94" y="537.12" width="420.37" height="111.23" transform="translate(-145.64 904.78) rotate(-48.99)"/><rect class="cls-6" x="467.95" y="327.09" width="798.41" height="197.66" transform="translate(-40.38 802.19) rotate(-48.99)"/><rect class="cls-7" x="255.63" y="443.84" width="659.32" height="164.1" transform="translate(-212.72 623.87) rotate(-48.99)"/><rect class="cls-8" x="20.93" y="323" width="866.98" height="180.94" transform="translate(-172.88 486.48) rotate(-48.99)"/><polygon class="cls-4" points="664.61 40.56 788.83 148.59 918.06 0 699.89 0 664.61 40.56"/><polygon class="cls-9" points="138.09 424.25 248.42 520.2 700.82 0 507.05 0 138.09 424.25"/><rect class="cls-10" x="157.25" y="135.62" width="254.07" height="111.54" transform="translate(-63.79 281.75) rotate(-48.99)"/><polygon class="cls-6" points="0 216.67 98.24 302.1 360.97 0 188.43 0 0 216.67"/><polygon class="cls-10" points="1136.34 0 1029.57 122.77 1152.76 229.9 1247.47 120.99 1247.47 0 1136.34 0"/><line class="cls-10" x1="1247.47" x2="1247.47" y2="120.99"/><polygon class="cls-1" points="722.61 224.75 846.43 332.43 1135.54 0 918.06 0 722.61 224.75"/><polygon class="cls-2" points="308.45 60.38 392.62 133.58 508.79 0 360.97 0 308.45 60.38"/></svg>