<svg id="Capa_1" enable-background="new 0 0 512 512" height="512" viewBox="0 0 512 512" width="512" xmlns="http://www.w3.org/2000/svg"><g><path d="m448 96v416h-336c-26.51 0-48-21.49-48-48v-416z" fill="#ffe76a"/><path d="m448 96v416h-192v-440z" fill="#ffc400"/><path d="m361.97 421.75h30v30h-30z" fill="#38336b"/><path d="m432.55 80.09h-319.08c-17.97 0-32.54-14.57-32.54-32.55 0-8.98 3.64-17.12 9.53-23.01s14.03-9.53 23.01-9.53h319.08c-8.99 0-17.13 3.64-23.02 9.53s-9.53 14.03-9.53 23.01c0 17.98 14.57 32.55 32.55 32.55z" fill="#f0f7ff"/><path d="m432.55 80.09h-176.55v-65.09h176.55c-8.99 0-17.13 3.64-23.02 9.53s-9.53 14.03-9.53 23.01c0 17.98 14.57 32.55 32.55 32.55z" fill="#d7e9fc"/><g fill="#4d4389"><path d="m120.97 421.75h135.5v30h-135.5z"/><path d="m120.97 361.5h90.25v30h-90.25z"/><path d="m94 48c0 9.93 8.08 18 18 18h336v30h-336c-26.51 0-48-21.49-48-48s21.49-48 48-48h336v30h-336c-9.92 0-18 8.07-18 18z"/></g><path d="m256 0h192v30h-192z" fill="#38336b"/><path d="m256 66h192v30h-192z" fill="#38336b"/><path d="m342.33 224.92c0 27.16-23.08 59.07-86.33 98.67-63.25-39.6-86.32-71.51-86.32-98.67 0-27.2 22.05-49.26 49.26-49.26 14.78 0 28.03 6.52 37.06 16.83 9.03-10.31 22.28-16.83 37.07-16.83 27.2 0 49.26 22.06 49.26 49.26z" fill="#ff6398"/><path d="m342.33 224.92c0 27.16-23.08 59.07-86.33 98.67v-131.1c9.03-10.31 22.28-16.83 37.07-16.83 27.2 0 49.26 22.06 49.26 49.26z" fill="#ff2d75"/></g></svg>