<svg height="512pt" viewBox="-30 0 512 512" width="512pt" xmlns="http://www.w3.org/2000/svg"><path d="m290.570312 480.878906c-27.648437 21.71875-60.636718 26.59375-91.917968 22.089844-36.742188-5.285156-72.253906-22.265625-108.238282-34.703125-27.164062-9.390625-55.3125-16.195313-82.914062-13.371094 11.71875-103.324219 42.773438-211.738281 62.566406-245.359375-7.265625-34.6875-18.871094-81.84375-21.183594-103.625-2.332031-21.902344-.726562-77.003906-.167968-93.605468.089844-2.679688 2.289062-4.804688 4.972656-4.804688h17.597656c2.746094 0 4.972656 2.226562 4.972656 4.972656v19.09375c0 19.589844 7.9375 37.328125 20.773438 50.164063 12.890625 12.890625 30.722656 20.839843 50.410156 20.773437 39.253906-.136718 70.691406-32.734375 70.691406-71.988281v-18.039063c0-2.75 2.226563-4.976562 4.972657-4.976562h17.597656c2.683594 0 4.882813 2.125 4.972656 4.804688.554688 16.601562 2.164063 71.703124-.167969 93.609374-2.289062 21.480469-13.597656 67.375-20.886718 102.191407 21.371094 34.964843 56.90625 160.902343 65.949218 272.773437zm0 0" fill="#ffe1d7"/><path d="m224.625 208.105469c7.289062-34.816407 18.59375-80.710938 20.882812-102.195313 2.332032-21.902344.726563-77.003906.167969-93.605468-.089843-2.679688-2.289062-4.804688-4.972656-4.804688h-17.597656c-2.746094 0-4.972657 2.226562-4.972657 4.972656v18.042969c0 .734375-.035156 1.464844-.058593 2.199219.492187 23.480468.84375 57.191406-.660157 73.195312-2.015624 21.480469-11.988281 67.378906-18.417968 102.195313 18.847656 34.964843 50.1875 160.902343 58.164062 272.773437-15.648437 13.933594-33.234375 20.925782-51.117187 22.964844 29.035156 2.75 59.046875-2.953125 84.527343-22.964844-9.042968-111.871094-44.578124-237.808594-65.945312-272.773437zm0 0" fill="#ffd2c0"/><path d="m69.761719 208.105469c.101562.476562.203125.957031.304687 1.429687-19.792968 33.621094-50.847656 142.035156-62.566406 245.359375 27.601562-2.824219 55.75 3.980469 82.914062 13.371094 35.984376 12.4375 71.496094 29.417969 108.238282 34.703125 31.285156 4.503906 64.269531-.371094 91.917968-22.089844-9.042968-111.871094-44.578124-237.808594-65.945312-272.773437zm0 0" fill="#8cbafa"/><path d="m224.625 208.105469h-25.628906c18.847656 34.964843 50.1875 160.902343 58.164062 272.773437-15.648437 13.9375-33.234375 20.929688-51.117187 22.964844 30.695312 2.910156 60.179687-3.839844 84.527343-22.964844-6.082031-75.246094-36.390624-224.410156-65.945312-272.773437zm0 0" fill="#5692d8"/><path d="m406.835938 247.3125c-27.105469 0-42.59375 18.691406-58.785157 54.210938-15.667969 34.363281-40.914062 78.171874-67.011719 78.171874-14.929687 0-23.0625-12.585937-27.644531-22.8125-1.132812-2.527343-3.875-3.933593-6.578125-3.339843-65.960937 14.472656-73.433594 60.613281-73.925781 77.339843-.101563 3.375 2.554687 6.128907 5.933594 6.128907h120.117187c3.398438 0 6.445313-2.15625 7.511719-5.382813 14.808594-44.800781 62.082031-90.761718 81.375-90.761718 4.929687 5.195312 4.929687 27.542968 4.929687 39.160156v50.984375c0 3.3125 2.683594 6 6 6h12.417969c3.316407 0 6-2.6875 6-6v-50.984375c0-26.046875 20.640625-42.242188 20.640625-69.699219 0-38.375-14.785156-63.015625-30.980468-63.015625zm0 0" fill="#ed5176"/><path d="m406.835938 247.3125c-3.359376 0-6.542969.289062-9.566407.859375 13.175781 4.621094 24.222657 27.914063 24.222657 62.152344 0 27.457031-19.367188 43.652343-19.367188 69.703125v50.984375c0 2.914062-1.949219 5.339843-4.535156 5.882812.378906.074219.765625.117188 1.167968.117188h12.417969c3.316407 0 6-2.6875 6-6v-50.984375c0-26.050782 20.640625-42.242188 20.640625-69.703125 0-38.371094-14.785156-63.011719-30.980468-63.011719zm0 0" fill="#ba365f"/><path d="m290.601562 71.003906-22.335937 52.578125c-.976563 2.296875-.539063 4.953125 1.121094 6.816407l82.082031 92.136718c2.566406 2.882813 7.070312 2.882813 9.636719 0l82.082031-92.136718c1.660156-1.863282 2.09375-4.519532 1.121094-6.816407l-22.339844-52.578125c-1.011719-2.386718-3.351562-3.933594-5.9375-3.933594h-119.488281c-2.589844 0-4.929688 1.546876-5.941407 3.933594zm0 0" fill="#c8e7f7"/><path d="m444.367188 123.742188h-58.171876c0-.050782 0-.109376-.011718-.15625l-7.582032-52.589844c-.34375-2.375-1.144531-3.917969-2.023437-3.917969h39.445313c2.59375 0 4.929687 1.542969 5.953124 3.917969l22.332032 52.589844c.023437.046874.046875.105468.058594.15625zm0 0" fill="#add9ea"/><path d="m335.992188 67.078125c-.875 0-1.679688 1.542969-2.019532 3.917969l-7.582031 52.589844c-.011719.046874-.011719.109374-.011719.15625h-58.175781c.011719-.050782.039063-.109376.0625-.15625l22.332031-52.589844c1.019532-2.375 3.359375-3.917969 5.949219-3.917969zm0 0" fill="#def6ff"/><path d="m443.1875 130.398438-82.074219 92.140624c-1.292969 1.4375-3.054687 2.15625-4.820312 2.15625.597656 0 1.191406-.71875 1.632812-2.15625l27.878907-92.140624c.5625-1.824219.707031-4.394532.390624-6.65625h58.171876c.890624 2.265624.4375 4.832031-1.179688 6.65625zm0 0" fill="#90c7d3"/><path d="m385.804688 130.398438-27.882813 92.140624c-.4375 1.4375-1.035156 2.15625-1.628906 2.15625-.609375 0-1.207031-.71875-1.644531-2.15625l-27.882813-92.140624c-.546875-1.824219-.703125-4.394532-.386719-6.65625h59.816406c.316407 2.265624.167969 4.832031-.390624 6.65625zm0 0" fill="#add9ea"/><path d="m406.835938 239.8125c-32.28125 0-49.574219 23.425781-65.613282 58.601562-21.375 46.890626-43.3125 73.78125-60.183594 73.78125-3.105468 0-12.566406 0-20.800781-18.378906-2.578125-5.75-8.894531-8.945312-15.03125-7.601562-30.351562 6.660156-52.613281 20.464844-66.167969 41.023437-11.265624 17.089844-13.386718 34.542969-13.648437 43.421875-.105469 3.683594 1.238281 7.15625 3.789063 9.785156 2.546874 2.621094 5.972656 4.066407 9.644531 4.066407h100.410156c1.417969 11.207031 2.597656 22.222656 3.519531 32.875-28.550781 20.683593-60.71875 21.371093-83.03125 18.160156-25.621094-3.691406-51.464844-13.570313-76.460937-23.121094-9.933594-3.796875-20.203125-7.722656-30.398438-11.246093-30.519531-10.550782-54.691406-15.109376-76.847656-14.367188 11.859375-95.828125 39.871094-196.0625 59.222656-231.207031h34.269531c-2.609374 13.710937-5.558593 34.183593-8.476562 58.957031-.484375 4.113281 2.457031 7.84375 6.574219 8.328125.296875.035156.589843.050781.882812.050781 3.75 0 6.992188-2.808594 7.441407-6.625 3.097656-26.300781 6.199218-47.546875 8.859374-60.710937h47.507813c2.648437 13.203125 5.734375 34.363281 8.835937 60.710937.449219 3.816406 3.691407 6.625 7.441407 6.625.289062 0 .585937-.015625.882812-.050781 4.117188-.484375 7.058594-4.214844 6.574219-8.328125-2.921875-24.804688-5.855469-45.207031-8.457031-58.957031h32.714843c11.96875 21.945312 27.367188 69.460937 39.921876 123.511719.804687 3.46875 3.886718 5.808593 7.296874 5.808593.5625 0 1.132813-.0625 1.703126-.195312 4.035156-.9375 6.546874-4.96875 5.609374-9.003907-13.089843-56.371093-29.476562-106.25-42.261718-128.910156 2.0625-9.726562 4.433594-20.367187 6.730468-30.6875 5.917969-26.550781 12.035157-54.007812 13.675782-69.421875 2.382812-22.390625.761718-78.109375.207031-94.652343-.226563-6.757813-5.703125-12.054688-12.46875-12.054688h-17.597656c-6.878907 0-12.472657 5.597656-12.472657 12.476562v18.039063c0 35.441406-28.359374 64.371094-63.21875 64.488281h-.21875c-16.953124 0-32.878906-6.59375-44.863281-18.574218-11.976562-11.980469-18.574219-27.910157-18.574219-44.863282v-19.089844c0-6.878906-5.597656-12.476562-12.476562-12.476562h-17.59375c-6.765625 0-12.242188 5.296875-12.46875 12.054688-.320312 9.53125-1.0625 34.148437-1.0625 56.796874 0 4.140626 3.355469 7.5 7.5 7.5 4.140625 0 7.5-3.359374 7.5-7.5 0-20.695312.625-43.089843.972656-53.851562h12.628906v16.566406c0 20.957032 8.15625 40.65625 22.96875 55.46875 14.882813 14.882813 34.640626 23.003906 55.742188 22.96875 43.097656-.144531 78.164062-35.804687 78.164062-79.488281v-15.515625h12.628907c.601562 18.753906 1.964843 69.664062-.210938 90.117188-1.554687 14.570312-7.574219 41.605468-13.402343 67.75-2.066407 9.277343-4.1875 18.808593-6.101563 27.738281h-39.867187c-.214844-.007813-.433594-.007813-.652344 0h-59.335938c-.238281-.011719-.476562-.011719-.71875 0h-42.144531c-1.828125-8.5-3.847656-17.5625-5.8125-26.394531-5.949219-26.691407-12.101563-54.296876-13.675781-69.09375-.191406-1.796876-.367188-3.996094-.53125-6.726563-.253906-4.132813-3.800782-7.261719-7.945313-7.027344-4.132812.25-7.28125 3.808594-7.027343 7.941407.179687 2.957031.371093 5.375.585937 7.398437 1.667969 15.644531 7.910156 43.667969 13.949219 70.769531 2.320312 10.40625 4.710937 21.136719 6.765625 30.832032-10.164063 18.507812-22.324219 53.121093-33.632813 95.855468-12.929687 48.855469-23.035156 102.089844-28.457031 149.894532-.253906 2.257812.523437 4.507812 2.121094 6.121093 1.597656 1.613281 3.835937 2.414063 6.097656 2.1875 22.460937-2.300781 47.035156 1.707031 79.695313 12.996094 9.96875 3.441406 20.125 7.324219 29.945312 11.078125 25.761719 9.847656 52.402344 20.027344 79.675781 23.957031 7.460938 1.074219 14.78125 1.605469 21.925781 1.605469 28.625 0 54.480469-8.558594 75.695313-25.222656 1.980469-1.554688 3.046875-3.996094 2.84375-6.503906-.933594-11.542969-2.171875-23.539063-3.695313-35.761719h4.589844c6.667969 0 12.546875-4.230469 14.632813-10.53125 6.378906-19.304688 19.992187-40.953125 37.347656-59.394531 13.121094-13.945313 25.214844-22.503907 32.566406-25.25 1.175781 5.308593 1.769531 15.589843 1.769531 30.691406v50.984375c0 7.441406 6.054688 13.5 13.5 13.5h12.421876c7.441406 0 13.5-6.058594 13.5-13.5v-50.984375c0-11.144532 4.550781-20.621094 9.375-30.648438 5.539062-11.523437 11.261718-23.4375 11.261718-39.054687 0-40.855469-16.183594-70.511719-38.480468-70.511719zm13.699218 103.066406c-5.339844 11.105469-10.855468 22.585938-10.855468 37.148438v49.484375h-9.421876v-49.484375c0-23.96875-1.113281-38.132813-6.988281-44.324219-1.414062-1.492187-3.382812-2.335937-5.441406-2.335937-17.367187 0-41 23.679687-47.828125 30.9375-18.800781 19.980468-33.625 43.660156-40.667969 64.96875-.046875.136718-.210937.238281-.390625.238281h-12.949218c-.101563-.003907-.207032-.003907-.308594 0h-105.234375c.933593-17.441407 9.730469-55.3125 66.65625-68.351563 8.070312 17.277344 19.484375 26.035156 33.933593 26.035156 24.019532 0 48.859376-27.777343 73.832032-82.558593 16.773437-36.789063 30.371094-49.824219 51.964844-49.824219 9.84375 0 23.480468 19.289062 23.480468 55.511719 0 12.203125-4.75 22.089843-9.78125 32.554687zm0 0"/><path d="m451.304688 120.875c-.050782-.128906-.105469-.257812-.160157-.382812l-22.273437-52.425782c-2.191406-5.160156-7.234375-8.496094-12.839844-8.496094h-119.488281c-5.609375 0-10.648438 3.335938-12.84375 8.5l-2.792969 6.574219c-1.621094 3.816407.15625 8.21875 3.96875 9.835938 3.816406 1.621093 8.21875-.15625 9.835938-3.96875l2.523437-5.941407h28.648437l-5.992187 41.511719h-40.289063l2.992188-7.050781c1.621094-3.8125-.15625-8.214844-3.96875-9.835938-3.8125-1.617187-8.21875.160157-9.835938 3.972657l-7.359374 17.324219c-.058594.125-.109376.253906-.160157.382812-1.976562 4.894531-1 10.5625 2.515625 14.511719l82.082032 92.136719c2.625 2.949218 6.390624 4.648437 10.335937 4.671874h.082031.082032c3.945312-.023437 7.710937-1.722656 10.335937-4.671874l82.082031-92.136719c3.519532-3.949219 4.496094-9.621094 2.519532-14.511719zm-131.714844 11.695312 19.664062 64.980469-59.214844-66.46875h39.171876c.109374.515625.234374 1.011719.378906 1.488281zm56.800781 28.941407c-3.96875-1.195313-8.152344 1.042969-9.351563 5.007812l-10.753906 35.53125-21.472656-70.96875h42.949219l-1.769531 5.847657c-1.199219 3.964843 1.042968 8.148437 5.007812 9.351562 3.964844 1.195312 8.152344-1.042969 9.351562-5.007812l2.632813-8.703126c.144531-.472656.269531-.972656.378906-1.488281h39.171875l-59.214844 66.46875 8.078126-26.6875c1.195312-3.964843-1.046876-8.152343-5.007813-9.351562zm56.582031-45.429688h-40.292968l-5.988282-41.511719h28.644532zm-91.933594-41.511719h30.496094l5.988282 41.511719h-42.476563zm0 0"/></svg>