<svg height="480pt" viewBox="-60 0 480 480" width="480pt" xmlns="http://www.w3.org/2000/svg"><path d="m64 72h168v128h-168zm0 0" fill="#f4a876"/><path d="m48 312h144v160h-144zm0 0" fill="#8c4b32"/><path d="m8 280h224v32h-224zm0 0" fill="#8c4b32"/><path d="m360 200h-80v-128h80" fill="#8c4b32"/><path d="m232 8h-48c-35.347656 0-64 28.652344-64 64 0-35.347656-28.652344-64-64-64h-48c0 35.347656 28.652344 64 64 64v120c-15.339844 14.585938-24.015625 34.832031-24 56v32h144v-32c.015625-21.167969-8.660156-41.414062-24-56v-120c35.347656 0 64-28.652344 64-64zm0 0" fill="#e0e0de"/><path d="m112 72h16v120h-16zm0 0" fill="#ccccca"/><g fill="#feb784"><path d="m56 72h16c8.835938 0 16 7.164062 16 16s-7.164062 16-16 16h-16c-8.835938 0-16-7.164062-16-16s7.164062-16 16-16zm0 0"/><path d="m56 104h16c8.835938 0 16 7.164062 16 16s-7.164062 16-16 16h-16c-8.835938 0-16-7.164062-16-16s7.164062-16 16-16zm0 0"/><path d="m56 136h16c8.835938 0 16 7.164062 16 16s-7.164062 16-16 16h-16c-8.835938 0-16-7.164062-16-16s7.164062-16 16-16zm0 0"/><path d="m56 168h16c8.835938 0 16 7.164062 16 16s-7.164062 16-16 16h-16c-8.835938 0-16-7.164062-16-16s7.164062-16 16-16zm0 0"/><path d="m232 72h-112c0 22.089844 17.910156 40 40 40h8c4.703125 18.804688 21.597656 32 40.984375 32h23.015625zm0 0"/></g><path d="m232 72h48v128h-48zm0 0" fill="#e0e0de"/><path d="m72 232h16v16h-16zm0 0" fill="#e94f4f"/><path d="m152 232h16v16h-16zm0 0" fill="#e94f4f"/><path d="m136 264c0 8.835938-7.164062 16-16 16s-16-7.164062-16-16 7.164062-16 16-16 16 7.164062 16 16zm0 0" fill="#7d432d"/><path d="m48 312h144v32h-144zm0 0" fill="#e94f4f"/><path d="m72 368h16v16h-16zm0 0" fill="#9c6049"/><path d="m72 400h16v48h-16zm0 0" fill="#9c6049"/><path d="m232 64h-18.839844c16.964844-13.640625 26.835938-34.230469 26.839844-56 0-4.417969-3.582031-8-8-8h-48c-26.953125.0195312-51.644531 15.078125-64 39.03125-12.355469-23.953125-37.046875-39.0117188-64-39.03125h-48c-4.417969 0-8 3.582031-8 8 .0195312 26.726562 14.84375 51.246094 38.503906 63.679688-8.570312 9.03125-8.683594 23.152343-.265625 32.320312-8.320312 9.042969-8.320312 22.957031 0 32-8.320312 9.042969-8.320312 22.957031 0 32-5.691406 6.226562-7.667969 15-5.191406 23.0625 2.476563 8.066406 9.035156 14.21875 17.242187 16.175781-6.683593 12.554688-10.210937 26.542969-10.289062 40.761719v24h-32c-4.417969 0-8 3.582031-8 8v32c0 4.417969 3.582031 8 8 8h32v152c0 4.417969 3.582031 8 8 8h144c4.417969 0 8-3.582031 8-8v-152h32c4.417969 0 8-3.582031 8-8v-32c0-4.417969-3.582031-8-8-8h-32v-24c-.082031-13.933594-3.484375-27.644531-9.921875-40h169.921875v-16h-72v-112h72v-16zm-56 124.519531v-48.96875c9.121094 8.011719 20.84375 12.4375 32.984375 12.449219h15.015625v40h-44.902344c-1.027344-1.160156-2-2.398438-3.097656-3.480469zm48-108.519531v56h-15.015625c-15.71875.019531-29.429687-10.679688-33.222656-25.9375-.890625-3.5625-4.089844-6.0625-7.761719-6.0625h-8c-14.585938-.015625-27.324219-9.878906-30.984375-24zm-40-64h39.433594c-4.015625 27.535156-27.609375 47.964844-55.433594 48h-39.359375c3.992187-27.515625 27.554687-47.945312 55.359375-48zm-136 136c0-4.417969 3.582031-8 8-8h16c4.417969 0 8 3.582031 8 8s-3.582031 8-8 8h-16c-4.417969 0-8-3.582031-8-8zm0-32c0-4.417969 3.582031-8 8-8h16c4.417969 0 8 3.582031 8 8s-3.582031 8-8 8h-16c-4.417969 0-8-3.582031-8-8zm24-24h-16c-4.417969 0-8-3.582031-8-8s3.582031-8 8-8h16c4.417969 0 8 3.582031 8 8s-3.582031 8-8 8zm-16 80h16c4.417969 0 8 3.582031 8 8s-3.582031 8-8 8h-16c-4.417969 0-8-3.582031-8-8s3.582031-8 8-8zm0 288v-112h128v112zm128-128h-128v-16h128zm40-32h-208v-16h208zm-112-40c0-4.417969 3.582031-8 8-8s8 3.582031 8 8-3.582031 8-8 8-8-3.582031-8-8zm30.527344 8c.949218-2.5625 1.445312-5.269531 1.472656-8 0-13.253906-10.746094-24-24-24s-24 10.746094-24 24c.027344 2.730469.523438 5.4375 1.472656 8h-41.472656v-24c.152344-14.285156 4.53125-28.203125 12.585938-40h3.414062c9.484375.042969 18.097656-5.53125 21.945312-14.199219 3.847657-8.667969 2.207032-18.792969-4.183593-25.800781 8.320312-9.042969 8.320312-22.957031 0-32 8.320312-9.042969 8.320312-22.957031 0-32 6.390625-7.007812 8.03125-17.132812 4.183593-25.800781-3.847656-8.667969-12.460937-14.242188-21.945312-14.199219-27.824219-.035156-51.417969-20.464844-55.433594-48h39.433594c30.910156.039062 55.960938 25.089844 56 56v120h16v-84.320312c8.773438 7.925781 20.175781 12.316406 32 12.320312v72c0 2.296875.988281 4.480469 2.710938 6 2.378906 2.105469 4.558593 4.429688 6.511718 6.9375 9.457032 12.375 14.644532 27.488281 14.777344 43.0625v24zm97.472656-128v-64h32v112h-32zm0 0"/><path d="m72 232h16v16h-16zm0 0"/><path d="m152 232h16v16h-16zm0 0"/><path d="m72 368h16v16h-16zm0 0"/><path d="m72 400h16v48h-16zm0 0"/></svg>